<svg width="36" height="36" viewBox="0 0 36 36" fill="none" xmlns="http://www.w3.org/2000/svg">
<g id="right-arrow 1">
<path id="Vector" d="M13.3453 24.5883C13.5633 24.3703 13.5562 24.0258 13.3453 23.7937L8.67656 18.5625H28.6875C28.9969 18.5625 29.25 18.3094 29.25 18C29.25 17.6906 28.9969 17.4375 28.6875 17.4375H8.67656L13.3383 12.2062C13.5422 11.9672 13.5633 11.6367 13.3453 11.4187C13.1273 11.2008 12.7477 11.1867 12.5437 11.4117C12.5437 11.4117 6.975 17.5289 6.91875 17.5992C6.8625 17.6695 6.75 17.7961 6.75 18C6.75 18.2039 6.8625 18.3445 6.91875 18.4008C6.975 18.457 12.5437 24.5883 12.5437 24.5883C12.6492 24.6937 12.7969 24.75 12.9445 24.75C13.0922 24.75 13.2328 24.6937 13.3453 24.5883Z" fill="white"/>
</g>
</svg>
