<svg width="129" height="64" viewBox="0 0 129 64" fill="none" xmlns="http://www.w3.org/2000/svg">
<path d="M24.3356 8.24496V0.0645752H0V40.6771H8.0807V24.412H24.3378V16.3274H8.0807V8.24274H24.3378L24.3356 8.24496Z" fill="black"/>
<path d="M56.2934 8.21381V0.0334167H39.925V8.21381H56.2934ZM39.9273 32.5613V8.21381H31.8466V32.5613H39.9273ZM64.3741 32.5613V8.21381H56.2934V32.5613H64.3741ZM56.2934 40.6459V32.5613H39.925V40.6459H56.2934Z" fill="black"/>
<path d="M96.2207 8.1804V0H80.1594V8.1804H96.4165M80.0615 16.265V8.1804H71.9808V16.265H80.0615ZM88.1422 24.4454V16.3608H79.9658V24.4454H88.1422ZM96.2207 32.6258V24.4454H88.14V32.6258H96.2207ZM88.1422 40.7105V32.6258H71.8851V40.7105H88.1422Z" fill="black"/>
<path d="M128.263 8.1804V0H112.202V8.1804H128.459M112.104 16.265V8.1804H104.023V16.265H112.104ZM120.185 24.4454V16.3608H112.008V24.4454H120.185ZM128.263 32.6258V24.4454H120.182V32.6258H128.263ZM120.185 40.7105V32.6258H103.927V40.7105H120.185Z" fill="black"/>
<path d="M8.94864 63.4504C7.35742 63.4504 5.93757 63.0807 4.68685 62.3415C3.43613 61.6023 2.45025 60.538 1.72919 59.1509C1.00591 57.7615 0.645386 56.0938 0.645386 54.1433C0.645386 52.1929 1.00814 50.5118 1.73587 49.118C2.46137 47.7264 3.45171 46.6598 4.70688 45.9206C5.96205 45.1814 7.37523 44.8118 8.95086 44.8118C9.9412 44.8118 10.8692 44.9521 11.7327 45.2326C12.5962 45.5132 13.3684 45.9228 14.0472 46.4639C14.7237 47.005 15.2823 47.664 15.7208 48.4433C16.1592 49.2226 16.4507 50.1088 16.5976 51.0996H13.3217C13.2171 50.5563 13.0346 50.0754 12.7809 49.6613C12.525 49.2471 12.2067 48.8953 11.8262 48.6081C11.4456 48.3209 11.0139 48.1004 10.5354 47.949C10.0569 47.7998 9.54506 47.7241 9.00204 47.7241C8.01171 47.7241 7.13265 47.9735 6.36708 48.4723C5.60152 48.971 4.99841 49.6991 4.56445 50.6521C4.13048 51.6073 3.91238 52.7695 3.91238 54.1411C3.91238 55.5127 4.13048 56.6994 4.5689 57.6502C5.00732 58.6009 5.61042 59.3201 6.37599 59.8055C7.14155 60.2909 8.01393 60.5358 8.98869 60.5358C9.53171 60.5358 10.0436 60.4601 10.522 60.3109C11.0005 60.1617 11.4323 59.9413 11.8195 59.6518C12.2045 59.3646 12.5272 59.0106 12.7876 58.592C13.048 58.1734 13.226 57.6969 13.3239 57.1603H16.6109C16.4885 58.0287 16.2237 58.8436 15.8142 59.6029C15.4047 60.3621 14.8662 61.0301 14.2008 61.6068C13.5353 62.1834 12.7609 62.6332 11.8818 62.9583C11.0005 63.2834 10.0258 63.4459 8.95308 63.4459L8.94864 63.4504Z" fill="black"/>
<path d="M18.5916 63.2054V45.0545H21.843V60.4645H29.8548V63.2054H18.5916Z" fill="black"/>
<path d="M39.0482 63.4748C37.5705 63.4748 36.2797 63.1965 35.1759 62.6399C34.072 62.0832 33.2152 61.3128 32.6077 60.3265C31.9979 59.3401 31.6952 58.2001 31.6952 56.9087V45.0567H34.9466V56.6415C34.9466 57.3963 35.1158 58.071 35.4518 58.6632C35.7879 59.2555 36.2641 59.7208 36.8761 60.0571C37.4881 60.3933 38.2136 60.5625 39.0504 60.5625C39.8872 60.5625 40.6105 60.3933 41.2247 60.0571C41.8367 59.7208 42.313 59.2555 42.649 58.6632C42.9851 58.071 43.1542 57.3963 43.1542 56.6415V45.0567H46.4056V56.9087C46.4056 58.2001 46.0985 59.3401 45.4865 60.3265C44.8745 61.3128 44.0177 62.0855 42.9183 62.6399C41.8189 63.1965 40.5304 63.4748 39.0526 63.4748H39.0482Z" fill="black"/>
<path d="M49.045 63.2054V45.0545H55.9841C57.2904 45.0545 58.3787 45.2615 59.2466 45.6757C60.1146 46.0898 60.7644 46.6509 61.1939 47.3567C61.6234 48.0626 61.8393 48.8664 61.8393 49.7681C61.8393 50.5073 61.6969 51.1374 61.412 51.6629C61.1271 52.1862 60.7488 52.6114 60.2726 52.9365C59.7963 53.2616 59.2644 53.4931 58.6724 53.6312V53.8138C59.3134 53.8472 59.9298 54.0409 60.524 54.3994C61.116 54.7578 61.6012 55.261 61.9795 55.909C62.3578 56.5591 62.5448 57.3429 62.5448 58.2602C62.5448 59.1776 62.3178 60.0459 61.8638 60.794C61.4098 61.5422 60.7243 62.13 59.8119 62.5597C58.8994 62.9894 57.7489 63.2054 56.3602 63.2054H49.0428H49.045ZM52.2964 52.7918H55.5724C56.1488 52.7918 56.6651 52.6871 57.1191 52.4756C57.5731 52.2641 57.9336 51.9635 58.1962 51.5738C58.461 51.1842 58.5923 50.7211 58.5923 50.1845C58.5923 49.4787 58.3453 48.8975 57.849 48.4433C57.3527 47.9891 56.6183 47.762 55.6458 47.762H52.2964V52.7918ZM52.2964 60.489H55.8528C57.0545 60.489 57.9202 60.2574 58.4521 59.7943C58.984 59.3312 59.2488 58.7389 59.2488 58.0153C59.2488 57.472 59.1153 56.9822 58.846 56.548C58.579 56.1138 58.1984 55.7709 57.7066 55.5193C57.2147 55.2677 56.6339 55.1408 55.9596 55.1408H52.2942V60.489H52.2964Z" fill="black"/>
<path d="M76.138 63.486C74.7337 63.486 73.5141 63.2655 72.4793 62.8269C71.4444 62.3883 70.6344 61.7515 70.0513 60.9143C69.4682 60.0771 69.15 59.0618 69.101 57.8684H72.3035C72.3591 58.5007 72.5594 59.0306 72.8999 59.4514C73.2404 59.8723 73.6922 60.1884 74.2508 60.3955C74.8116 60.6026 75.4325 60.705 76.1135 60.705C76.7945 60.705 77.4599 60.5959 78.0074 60.3755C78.5548 60.155 78.9821 59.85 79.2915 59.4559C79.6008 59.0618 79.7544 58.6053 79.7544 58.0843C79.7544 57.6145 79.6186 57.2226 79.3471 56.9154C79.0756 56.6059 78.6928 56.3454 78.2032 56.1294C77.7114 55.9134 77.1372 55.7264 76.4807 55.5639L74.4221 55.0273C72.9044 54.6376 71.7204 54.0476 70.8725 53.2616C70.0246 52.4734 69.5995 51.438 69.5995 50.1555C69.5995 49.0846 69.8866 48.145 70.463 47.3412C71.0394 46.5374 71.8272 45.9139 72.8242 45.4709C73.8213 45.0278 74.954 44.8073 76.2203 44.8073C77.4866 44.8073 78.6439 45.03 79.6164 45.4775C80.5889 45.9251 81.3523 46.5418 81.8997 47.33C82.4472 48.1182 82.7343 49.0155 82.7588 50.0219H79.6053C79.5229 49.2427 79.178 48.6393 78.5637 48.214C77.9517 47.7865 77.1528 47.575 76.1714 47.575C75.4904 47.575 74.9028 47.6774 74.411 47.8844C73.9192 48.0915 73.5431 48.3743 73.2782 48.7305C73.0134 49.089 72.8821 49.4987 72.8821 49.9618C72.8821 50.465 73.0379 50.8792 73.3517 51.2043C73.6632 51.5293 74.0572 51.7898 74.5334 51.9835C75.0097 52.1773 75.4881 52.3376 75.9755 52.4578L77.6669 52.8964C78.3412 53.059 78.9932 53.275 79.6275 53.5421C80.2595 53.8093 80.8315 54.15 81.3389 54.5597C81.8463 54.9694 82.2491 55.4681 82.5496 56.0515C82.85 56.6371 82.9991 57.3229 82.9991 58.1111C82.9991 59.1754 82.7276 60.1105 82.1824 60.9188C81.6393 61.727 80.856 62.3571 79.8323 62.8069C78.8085 63.2566 77.5756 63.4837 76.1313 63.4837L76.138 63.486Z" fill="black"/>
<path d="M91.358 63.486C89.9537 63.486 88.7342 63.2655 87.6993 62.8269C86.6645 62.3883 85.8544 61.7515 85.2713 60.9143C84.6883 60.0771 84.37 59.0618 84.321 57.8684H87.5235C87.5791 58.5007 87.7794 59.0306 88.1199 59.4514C88.4604 59.8723 88.9122 60.1884 89.4708 60.3955C90.0316 60.6026 90.6525 60.705 91.3335 60.705C92.0145 60.705 92.6799 60.5959 93.2274 60.3755C93.7749 60.155 94.2044 59.85 94.5115 59.4559C94.8208 59.0618 94.9744 58.6053 94.9744 58.0843C94.9744 57.6145 94.8386 57.2226 94.5671 56.9154C94.2956 56.6059 93.9129 56.3454 93.4232 56.1294C92.9314 55.9134 92.3572 55.7264 91.7007 55.5639L89.6422 55.0273C88.1244 54.6376 86.9404 54.0476 86.0925 53.2616C85.2446 52.4734 84.8195 51.438 84.8195 50.1555C84.8195 49.0846 85.1066 48.145 85.683 47.3412C86.2594 46.5374 87.0472 45.9139 88.0443 45.4709C89.0413 45.0278 90.174 44.8073 91.4403 44.8073C92.7066 44.8073 93.8639 45.03 94.8364 45.4775C95.809 45.9251 96.5723 46.5418 97.1198 47.33C97.6672 48.1182 97.9543 49.0155 97.9788 50.0219H94.8253C94.743 49.2427 94.398 48.6393 93.7838 48.214C93.1695 47.7887 92.3728 47.575 91.3914 47.575C90.7104 47.575 90.1229 47.6774 89.631 47.8844C89.1392 48.0915 88.7631 48.3743 88.4983 48.7305C88.2334 49.089 88.1021 49.4987 88.1021 49.9618C88.1021 50.465 88.2579 50.8792 88.5717 51.2043C88.8833 51.5293 89.2772 51.7898 89.7534 51.9835C90.2297 52.1773 90.7082 52.3376 91.1955 52.4578L92.8869 52.8964C93.5612 53.059 94.2133 53.275 94.8475 53.5421C95.4796 53.8093 96.0515 54.15 96.5589 54.5597C97.0663 54.9694 97.4692 55.4681 97.7696 56.0515C98.07 56.6371 98.2191 57.3229 98.2191 58.1111C98.2191 59.1754 97.9476 60.1105 97.4024 60.9188C96.8594 61.727 96.076 62.3571 95.0523 62.8069C94.0286 63.2566 92.7957 63.4837 91.3513 63.4837L91.358 63.486Z" fill="black"/>
<path d="M100.211 63.2054V45.0545H111.997V47.7954H103.462V52.6916H111.365V55.3969H103.462V60.4645H112.046V63.2054H100.211Z" fill="black"/>
<path d="M113.495 47.7954V45.0545H127.936V47.7954H122.348V63.2054H119.096V47.7954H113.495Z" fill="black"/>
</svg>
