<svg width="166" height="130" viewBox="0 0 166 130" fill="none" xmlns="http://www.w3.org/2000/svg">
<g id="Foss United Logo Black 1">
<path id="Vector" d="M30.5766 66.7367H20.8311V18.6982H44.7966V28.5122H30.5766V37.7914H44.7966V47.6053H30.5766V66.7367Z" fill="black"/>
<path id="Vector_2" d="M59.0146 56.8848H68.2291V28.5123H59.0146V56.8848ZM54.0091 66.7368V61.9253H49.269V23.4717H54.0091V18.6984H73.2346V23.4717H77.9745V61.9253H73.2346V66.7368H54.0091ZM49.5344 18.8511H54.0091V23.4717H49.5344V18.8511ZM73.2346 18.6984L77.9745 18.6982V23.4717H73.2346V18.6984ZM73.2346 61.9253H77.9745V66.5839H73.2346V61.9253ZM49.269 61.9253H54.0091V66.7368L49.269 66.7367V61.9253Z" fill="black"/>
<path id="Vector_3" d="M106.413 66.7367H82.4473V56.8845H101.407V47.6053H87.1873V42.832H82.4473V23.4715H87.1873V18.6982H111.153V28.5122H92.1928V37.7914H106.413V42.5647H111.153V61.9252H106.413V66.7367ZM82.7128 18.851H87.1873V23.4715H82.7128V18.851ZM82.4473 42.832H87.1873V47.6053H82.4474L82.4473 42.832ZM106.413 37.7914H111.153V42.5647H106.413V37.7914ZM106.413 61.9252H111.153V66.5839H106.413V61.9252Z" fill="black"/>
<path id="Vector_4" d="M139.594 66.7367H115.629V56.8845H134.588V47.6053H120.369V42.832H115.629V23.4715H120.369V18.6982H144.335V28.5122H125.374V37.7914H139.594V42.5647H144.335V61.9252H139.594V66.7367ZM115.895 18.851H120.369V23.4715H115.895V18.851ZM115.629 42.832H120.369V47.6053H115.629V42.832ZM139.594 37.7914H144.335V42.5647H139.594V37.7914ZM139.594 61.9252H144.335V66.5839H139.594V61.9252Z" fill="black"/>
<path id="Vector_5" d="M24.2498 110.623V107.14H20.8242V75.8496H27.8671V103.492H34.5263V75.8496H41.5691V107.14H38.1437V110.623H24.2498ZM20.8242 107.14H24.2498V110.623H20.8242V107.14ZM38.1437 107.14H41.5691V110.513H38.1437V107.14Z" fill="black"/>
<path id="Vector_6" d="M51.8466 110.623H44.8037V75.8496H65.5487V110.623H58.5058V82.9536H51.8466V110.623Z" fill="black"/>
<path id="Vector_7" d="M75.8261 110.623H68.7832V75.8496H75.8261V110.623Z" fill="black"/>
<path id="Vector_8" d="M92.953 110.623H85.9101V82.9536H79.0591V75.8496H99.804V82.9536H92.953V110.623Z" fill="black"/>
<path id="Vector_9" d="M120.358 110.623H103.039V75.8496H120.358V82.9536H110.081V89.6706H120.358V96.7745H110.081V103.492H120.358V110.623Z" fill="black"/>
<path id="Vector_10" d="M130.63 103.492H137.29V82.9536H130.63V103.492ZM123.587 110.623V75.8496H140.907V79.3048H144.333V107.14H140.907V110.623H123.587Z" fill="black"/>
<path id="Vector_11" d="M161.145 3.62598H4.01562V125.694H161.145V3.62598Z" stroke="black" stroke-width="2.82353"/>
</g>
</svg>
