<svg width="132" height="109" viewBox="0 0 132 109" fill="none" xmlns="http://www.w3.org/2000/svg">
<path d="M52.0344 104.068C41.743 104.068 31.6827 101.017 23.1257 95.2991C14.5687 89.5815 7.89939 81.4549 3.96103 71.9469C0.0226871 62.4389 -1.00776 51.9765 0.999991 41.8829C3.00774 31.7892 7.96352 22.5176 15.2406 15.2405C22.5178 7.96335 31.7894 3.00757 41.883 0.999821C51.9767 -1.00793 62.439 0.0225205 71.9471 3.96087C81.4551 7.89922 89.5817 14.5686 95.2993 23.1256C101.017 31.6826 104.069 41.7428 104.069 52.0342L86.5593 52.0342C86.5593 45.2059 84.5345 38.5308 80.7408 32.8532C76.9472 27.1756 71.5551 22.7505 65.2465 20.1374C58.9379 17.5243 51.9961 16.8406 45.2989 18.1727C38.6018 19.5049 32.45 22.793 27.6216 27.6214C22.7932 32.4498 19.505 38.6016 18.1729 45.2988C16.8407 51.9959 17.5244 58.9378 20.1375 65.2464C22.7507 71.555 27.1758 76.947 32.8534 80.7407C38.531 84.5343 45.206 86.5592 52.0344 86.5592L52.0344 104.068Z" fill="url(#paint0_radial_1_19)"/>
<path d="M61.8372 81.0959V63.4429H73.1462V66.1236H65.0351V70.9161H72.3704V73.5968H65.0351V81.0959H61.8372ZM93.0472 72.2694C93.0472 74.1715 92.6909 75.8006 91.9784 77.1567C91.2715 78.5071 90.3061 79.5415 89.0822 80.2598C87.8639 80.9781 86.4819 81.3372 84.9361 81.3372C83.3903 81.3372 82.0054 80.9781 80.7815 80.2598C79.5632 79.5357 78.5978 78.4985 77.8853 77.1481C77.1785 75.7919 76.825 74.1657 76.825 72.2694C76.825 70.3673 77.1785 68.7411 77.8853 67.3907C78.5978 66.0345 79.5632 64.9973 80.7815 64.279C82.0054 63.5607 83.3903 63.2015 84.9361 63.2015C86.4819 63.2015 87.8639 63.5607 89.0822 64.279C90.3061 64.9973 91.2715 66.0345 91.9784 67.3907C92.6909 68.7411 93.0472 70.3673 93.0472 72.2694ZM89.8321 72.2694C89.8321 70.9305 89.6223 69.8013 89.2028 68.8819C88.7891 67.9567 88.2145 67.2585 87.4789 66.7873C86.7434 66.3103 85.8958 66.0719 84.9361 66.0719C83.9765 66.0719 83.1289 66.3103 82.3933 66.7873C81.6578 67.2585 81.0803 67.9567 80.6608 68.8819C80.247 69.8013 80.0402 70.9305 80.0402 72.2694C80.0402 73.6083 80.247 74.7403 80.6608 75.6655C81.0803 76.5849 81.6578 77.2831 82.3933 77.7601C83.1289 78.2313 83.9765 78.4669 84.9361 78.4669C85.8958 78.4669 86.7434 78.2313 87.4789 77.7601C88.2145 77.2831 88.7891 76.5849 89.2028 75.6655C89.6223 74.7403 89.8321 73.6083 89.8321 72.2694ZM106.878 68.2957C106.797 67.543 106.458 66.9568 105.861 66.5373C105.269 66.1178 104.499 65.9081 103.551 65.9081C102.884 65.9081 102.312 66.0087 101.835 66.2098C101.358 66.4109 100.993 66.6839 100.741 67.0286C100.488 67.3734 100.359 67.7671 100.353 68.2095C100.353 68.5773 100.436 68.8962 100.603 69.1663C100.775 69.4364 101.008 69.6663 101.301 69.8559C101.594 70.0398 101.919 70.1949 102.275 70.3213C102.631 70.4478 102.99 70.5541 103.352 70.6403L105.007 71.054C105.674 71.2092 106.315 71.4189 106.93 71.6833C107.55 71.9476 108.105 72.2809 108.593 72.6831C109.087 73.0854 109.478 73.5709 109.765 74.1398C110.053 74.7087 110.196 75.3753 110.196 76.1396C110.196 77.174 109.932 78.0848 109.403 78.872C108.875 79.6535 108.11 80.2655 107.111 80.708C106.116 81.1447 104.913 81.3631 103.499 81.3631C102.126 81.3631 100.933 81.1505 99.9218 80.7252C98.9162 80.3 98.1289 79.6794 97.56 78.8634C96.9968 78.0474 96.6923 77.0533 96.6463 75.881H99.7925C99.8385 76.4959 100.028 77.0073 100.361 77.4153C100.695 77.8233 101.129 78.1279 101.663 78.329C102.203 78.5301 102.806 78.6307 103.473 78.6307C104.168 78.6307 104.777 78.5272 105.3 78.3204C105.829 78.1077 106.243 77.8147 106.542 77.4412C106.84 77.0619 106.993 76.6194 106.998 76.1137C106.993 75.654 106.858 75.2748 106.593 74.9759C106.329 74.6714 105.958 74.4185 105.481 74.2174C105.01 74.0106 104.459 73.8267 103.826 73.6658L101.818 73.1486C100.364 72.7751 99.215 72.209 98.3702 71.4505C97.5313 70.6862 97.1118 69.672 97.1118 68.4078C97.1118 67.3677 97.3934 66.4569 97.9565 65.6754C98.5254 64.8939 99.2983 64.2876 100.275 63.8566C101.252 63.4199 102.358 63.2015 103.594 63.2015C104.846 63.2015 105.944 63.4199 106.886 63.8566C107.835 64.2876 108.579 64.8881 109.119 65.6581C109.659 66.4224 109.938 67.3016 109.955 68.2957H106.878ZM123.855 68.2957C123.774 67.543 123.435 66.9568 122.837 66.5373C122.246 66.1178 121.476 65.9081 120.527 65.9081C119.861 65.9081 119.289 66.0087 118.812 66.2098C118.335 66.4109 117.97 66.6839 117.717 67.0286C117.465 67.3734 117.335 67.7671 117.33 68.2095C117.33 68.5773 117.413 68.8962 117.58 69.1663C117.752 69.4364 117.985 69.6663 118.278 69.8559C118.571 70.0398 118.895 70.1949 119.252 70.3213C119.608 70.4478 119.967 70.5541 120.329 70.6403L121.984 71.054C122.651 71.2092 123.291 71.4189 123.906 71.6833C124.527 71.9476 125.081 72.2809 125.57 72.6831C126.064 73.0854 126.455 73.5709 126.742 74.1398C127.03 74.7087 127.173 75.3753 127.173 76.1396C127.173 77.174 126.909 78.0848 126.38 78.872C125.851 79.6535 125.087 80.2655 124.087 80.708C123.093 81.1447 121.889 81.3631 120.476 81.3631C119.102 81.3631 117.91 81.1505 116.899 80.7252C115.893 80.3 115.106 79.6794 114.537 78.8634C113.974 78.0474 113.669 77.0533 113.623 75.881H116.769C116.815 76.4959 117.005 77.0073 117.338 77.4153C117.671 77.8233 118.105 78.1279 118.64 78.329C119.18 78.5301 119.783 78.6307 120.45 78.6307C121.145 78.6307 121.754 78.5272 122.277 78.3204C122.806 78.1077 123.22 77.8147 123.518 77.4412C123.817 77.0619 123.97 76.6194 123.975 76.1137C123.97 75.654 123.834 75.2748 123.57 74.9759C123.306 74.6714 122.935 74.4185 122.458 74.2174C121.987 74.0106 121.435 73.8267 120.803 73.6658L118.795 73.1486C117.341 72.7751 116.192 72.209 115.347 71.4505C114.508 70.6862 114.089 69.672 114.089 68.4078C114.089 67.3677 114.37 66.4569 114.933 65.6754C115.502 64.8939 116.275 64.2876 117.252 63.8566C118.229 63.4199 119.335 63.2015 120.571 63.2015C121.823 63.2015 122.921 63.4199 123.863 63.8566C124.811 64.2876 125.556 64.8881 126.096 65.6581C126.636 66.4224 126.915 67.3016 126.932 68.2957H123.855ZM73.6634 93.0801C73.5197 92.6147 73.3215 92.198 73.0686 91.8303C72.8215 91.4568 72.5227 91.1378 72.1722 90.8735C71.8274 90.6092 71.4309 90.4109 70.9827 90.2787C70.5344 90.1408 70.046 90.0719 69.5173 90.0719C68.5692 90.0719 67.7244 90.3103 66.9832 90.7873C66.2419 91.2643 65.6586 91.9653 65.2334 92.8905C64.8139 93.8099 64.6041 94.9305 64.6041 96.2521C64.6041 97.5853 64.8139 98.7145 65.2334 99.6397C65.6529 100.565 66.2361 101.269 66.9832 101.751C67.7302 102.228 68.5979 102.467 69.5863 102.467C70.4827 102.467 71.2585 102.295 71.9136 101.95C72.5744 101.605 73.083 101.116 73.4393 100.484C73.7955 99.8465 73.9737 99.0995 73.9737 98.2433L74.6977 98.3553H69.9052V95.8556H77.0681V97.9761C77.0681 99.4874 76.7463 100.795 76.1027 101.898C75.4591 103.001 74.5742 103.852 73.4479 104.449C72.3216 105.041 71.0286 105.337 69.569 105.337C67.9428 105.337 66.5148 104.972 65.2851 104.243C64.0611 103.507 63.1043 102.464 62.4147 101.114C61.7309 99.7575 61.389 98.1485 61.389 96.2866C61.389 94.8615 61.5901 93.5887 61.9924 92.4681C62.4004 91.3476 62.9693 90.3965 63.6991 89.615C64.4289 88.8278 65.2851 88.2301 66.2677 87.8221C67.2504 87.4084 68.3192 87.2015 69.4742 87.2015C70.4511 87.2015 71.3619 87.3452 72.2066 87.6325C73.0514 87.9141 73.8013 88.3163 74.4564 88.8393C75.1172 89.3622 75.6602 89.9828 76.0855 90.7011C76.5107 91.4194 76.7894 92.2124 76.9216 93.0801H73.6634ZM81.3741 105.096V87.4429H92.8554V90.1236H84.5719V94.9161H92.2606V97.5968H84.5719V102.415H92.9244V105.096H81.3741ZM112.442 93.399H109.218C109.126 92.8704 108.957 92.402 108.709 91.994C108.462 91.5803 108.155 91.2298 107.787 90.9425C107.419 90.6551 107 90.4396 106.529 90.296C106.063 90.1466 105.56 90.0719 105.02 90.0719C104.061 90.0719 103.21 90.3132 102.469 90.7959C101.728 91.2729 101.147 91.9739 100.728 92.8991C100.308 93.8185 100.098 94.942 100.098 96.2694C100.098 97.6198 100.308 98.7576 100.728 99.6828C101.153 100.602 101.733 101.298 102.469 101.769C103.21 102.234 104.058 102.467 105.012 102.467C105.54 102.467 106.035 102.398 106.494 102.26C106.96 102.116 107.376 101.907 107.744 101.631C108.118 101.355 108.431 101.016 108.684 100.614C108.942 100.211 109.12 99.7517 109.218 99.2345L112.442 99.2518C112.321 100.091 112.06 100.878 111.657 101.614C111.261 102.349 110.741 102.998 110.097 103.562C109.454 104.119 108.701 104.556 107.839 104.872C106.977 105.182 106.02 105.337 104.969 105.337C103.417 105.337 102.032 104.978 100.814 104.26C99.5957 103.541 98.636 102.504 97.935 101.148C97.2339 99.7919 96.8834 98.1657 96.8834 96.2694C96.8834 94.3673 97.2368 92.7411 97.9436 91.3907C98.6504 90.0345 99.6129 88.9973 100.831 88.279C102.049 87.5607 103.429 87.2015 104.969 87.2015C105.951 87.2015 106.865 87.3394 107.71 87.6153C108.554 87.8911 109.307 88.2962 109.968 88.8306C110.629 89.3593 111.172 90.0087 111.597 90.7787C112.028 91.543 112.31 92.4164 112.442 93.399ZM115.808 90.1236V87.4429H129.893V90.1236H124.436V105.096H121.264V90.1236H115.808Z" fill="black"/>
<defs>
<radialGradient id="paint0_radial_1_19" cx="0" cy="0" r="1" gradientUnits="userSpaceOnUse" gradientTransform="translate(119.459 5.13013) rotate(124.274) scale(119.728)">
<stop stop-color="#3B96DB"/>
<stop offset="1" stop-color="#34B5E8"/>
</radialGradient>
</defs>
</svg>
