<svg width="24" height="24" viewBox="0 0 24 24" fill="none" xmlns="http://www.w3.org/2000/svg">
<g id="location (1) 1">
<path id="Vector" fill-rule="evenodd" clip-rule="evenodd" d="M11.9946 1.5C7.85538 1.5 4.49463 4.86075 4.49463 9C4.49463 10.2802 5.06913 12.0315 5.91963 13.887C7.12413 16.518 8.86638 19.386 10.0536 21.3668C10.4511 22.0665 11.1944 22.5 11.9999 22.5C12.396 22.5 12.785 22.3949 13.1271 22.1952C13.4692 21.9956 13.7521 21.7086 13.9469 21.3638C15.1341 19.386 16.8719 16.518 18.0741 13.8862C18.9224 12.0307 19.4946 10.2802 19.4946 9C19.4946 4.86075 16.1346 1.5 11.9946 1.5ZM11.9946 3C15.3066 3 17.9946 5.68875 17.9946 9C17.9946 10.1198 17.4524 11.6392 16.7099 13.263C15.5294 15.846 13.8194 18.6607 12.6546 20.6025L12.6434 20.6227C12.5793 20.7371 12.4859 20.8323 12.3728 20.8986C12.2597 20.9649 12.131 20.9999 11.9999 21C11.8688 21.0001 11.74 20.9651 11.6269 20.8988C11.5138 20.8325 11.4204 20.7372 11.3564 20.6227C11.3526 20.616 11.3489 20.6093 11.3451 20.6033C10.1804 18.6608 8.46663 15.846 7.28313 13.2623C6.53913 11.6393 5.99463 10.1198 5.99463 9C5.99463 5.68875 8.68338 3 11.9946 3ZM11.9999 6C10.3439 6 8.99988 7.344 8.99988 9C8.99988 10.656 10.3439 12 11.9999 12C13.6559 12 14.9999 10.656 14.9999 9C14.9999 7.344 13.6559 6 11.9999 6ZM11.9999 7.5C12.8279 7.5 13.4999 8.172 13.4999 9C13.4999 9.828 12.8279 10.5 11.9999 10.5C11.1719 10.5 10.4999 9.828 10.4999 9C10.4999 8.172 11.1719 7.5 11.9999 7.5Z" fill="#3B3B3B"/>
</g>
</svg>
