<svg width="110" height="109" viewBox="0 0 110 109" fill="none" xmlns="http://www.w3.org/2000/svg">
<rect x="0.436035" width="109" height="109" rx="54.5" fill="white"/>
<path d="M34 46.1953V44.4142L30.7731 47.5661L28 49.9836L34 48.1642V46.1953Z" fill="black"/>
<path d="M41.25 59.4143C41.25 58.7239 40.6904 58.1643 40 58.1643C39.3096 58.1643 38.75 58.7239 38.75 59.4143H41.25ZM28 49.9836L27.1786 49.0414C26.7344 49.4286 26.621 50.0736 26.9065 50.5891C27.192 51.1047 27.7988 51.3508 28.3627 51.1798L28 49.9836ZM30.7731 47.5661L31.5945 48.5083L31.6212 48.4851L31.6465 48.4603L30.7731 47.5661ZM37 62.4144L36.9965 61.1644L37 62.4144ZM35.25 32.5271C35.25 31.3014 36.0701 29.7821 37.7106 28.6575C39.314 27.5583 41.6018 26.9224 44.269 27.4239L44.731 24.9669C41.4084 24.3422 38.4462 25.1222 36.297 26.5955C34.185 28.0433 32.75 30.2529 32.75 32.5271H35.25ZM34 47.4453H43V44.9453H34V47.4453ZM35.25 46.1953V44.4142H32.75V46.1953H35.25ZM35.25 44.4142V32.5271H32.75V44.4142H35.25ZM35.25 59.4143V48.1642H32.75V59.4143H35.25ZM35.25 48.1642V46.1953H32.75V48.1642H35.25ZM28.3627 51.1798L34.3627 49.3604L33.6373 46.968L27.6373 48.7874L28.3627 51.1798ZM33.1266 43.52L29.8996 46.6719L31.6465 48.4603L34.8734 45.3084L33.1266 43.52ZM29.9517 46.6239L27.1786 49.0414L28.8214 50.9258L31.5945 48.5083L29.9517 46.6239ZM38.75 59.4143C38.75 60.1478 38.4721 60.5338 38.169 60.7683C37.8161 61.0413 37.3463 61.1634 36.9965 61.1644L37.0035 63.6644C37.8109 63.6621 38.8411 63.4092 39.6989 62.7455C40.6065 62.0433 41.25 60.9308 41.25 59.4143H38.75ZM36.9965 61.1644C36.6331 61.1654 36.1885 60.9788 35.8118 60.5986C35.4337 60.2171 35.25 59.7675 35.25 59.4143H32.75C32.75 60.5611 33.2982 61.6138 34.0361 62.3583C34.7753 63.1043 35.8307 63.6677 37.0035 63.6644L36.9965 61.1644Z" fill="black"/>
<path d="M50.8232 30.5156L49.7786 31.2021L50.8232 30.5156ZM74.75 63C74.75 63.6904 75.3096 64.25 76 64.25C76.6904 64.25 77.25 63.6904 77.25 63H74.75ZM81.8396 47.926C82.3511 47.4623 82.3897 46.6718 81.926 46.1604C81.4623 45.6489 80.6718 45.6103 80.1604 46.074L81.8396 47.926ZM44.2709 27.4244C45.9486 27.7372 46.9966 28.237 47.7631 28.8295C48.5452 29.4341 49.1177 30.1964 49.7786 31.2021L51.8678 29.8291C51.1776 28.7789 50.4187 27.7224 49.2921 26.8516C48.1499 25.9687 46.7119 25.3365 44.7291 24.9667L44.2709 27.4244ZM49.7786 31.2021C51.4039 33.6754 51.8079 37.1761 50.7346 40.0203C49.6997 42.7628 47.2793 44.9456 43 44.9456V47.4456C48.3432 47.4456 51.6799 44.5964 53.0736 40.903C54.4289 37.3113 53.9332 32.972 51.8678 29.8291L49.7786 31.2021ZM51.3757 31.6369C56.5188 29.1027 62.3205 30.0516 66.8991 33.3683C71.4771 36.6846 74.75 42.3232 74.75 49H77.25C77.25 41.4847 73.5623 35.1081 68.3657 31.3437C63.1698 27.5798 56.3831 26.3825 50.2707 29.3943L51.3757 31.6369ZM74.75 49V63H77.25V49H74.75ZM75.7524 50.2252C76.9997 50.4773 78.0483 50.4184 79.0875 49.9503C80.0415 49.5205 80.9018 48.7763 81.8396 47.926L80.1604 46.074C79.1848 46.9586 78.6005 47.4277 78.0607 47.6709C77.6059 47.8757 77.1112 47.9493 76.2476 47.7748L75.7524 50.2252Z" fill="#D71920"/>
<path d="M33.5342 69.1953V65.5453H34.3792L34.7142 66.6953C34.7509 66.8153 34.7776 66.9203 34.7942 67.0103C34.8142 67.1003 34.8259 67.1636 34.8292 67.2003C34.8326 67.1636 34.8426 67.1003 34.8592 67.0103C34.8792 66.9203 34.9059 66.8153 34.9392 66.6953L35.2692 65.5453H36.1142V69.1953H35.4292V68.1953C35.4292 68.012 35.4326 67.8203 35.4392 67.6203C35.4492 67.417 35.4609 67.2153 35.4742 67.0153C35.4876 66.8153 35.5026 66.6286 35.5192 66.4553C35.5359 66.2786 35.5509 66.1253 35.5642 65.9953L35.1442 67.6453H34.5092L34.0692 65.9953C34.0859 66.1186 34.1026 66.267 34.1192 66.4403C34.1359 66.6103 34.1509 66.7953 34.1642 66.9953C34.1809 67.192 34.1942 67.3936 34.2042 67.6003C34.2142 67.807 34.2192 68.0053 34.2192 68.1953V69.1953H33.5342ZM36.7223 69.1953V68.5453H37.4473V66.1953H36.7223V65.5453H38.9223V66.1953H38.1973V68.5453H38.9223V69.1953H36.7223ZM40.4453 69.1953V66.2453H39.5203V65.5453H42.1203V66.2453H41.1953V69.1953H40.4453ZM43.8184 69.2453C43.5617 69.2453 43.3384 69.202 43.1484 69.1153C42.9584 69.0286 42.8117 68.907 42.7084 68.7503C42.605 68.5936 42.5534 68.4086 42.5534 68.1953H43.3034C43.3034 68.3186 43.35 68.417 43.4434 68.4903C43.54 68.5603 43.67 68.5953 43.8334 68.5953C43.99 68.5953 44.1117 68.5603 44.1984 68.4903C44.2884 68.4203 44.3334 68.3236 44.3334 68.2003C44.3334 68.0936 44.3 68.002 44.2334 67.9253C44.1667 67.8486 44.0734 67.797 43.9534 67.7703L43.5834 67.6853C43.2734 67.612 43.0317 67.477 42.8584 67.2803C42.6884 67.0803 42.6034 66.837 42.6034 66.5503C42.6034 66.337 42.6517 66.152 42.7484 65.9953C42.8484 65.8353 42.9884 65.712 43.1684 65.6253C43.3484 65.5386 43.5617 65.4953 43.8084 65.4953C44.1817 65.4953 44.4767 65.5886 44.6934 65.7753C44.9134 65.9586 45.0234 66.207 45.0234 66.5203H44.2734C44.2734 66.4036 44.2317 66.312 44.1484 66.2453C44.0684 66.1786 43.9517 66.1453 43.7984 66.1453C43.655 66.1453 43.545 66.1786 43.4684 66.2453C43.3917 66.3086 43.3534 66.4003 43.3534 66.5203C43.3534 66.627 43.3834 66.7186 43.4434 66.7953C43.5067 66.8686 43.595 66.9186 43.7084 66.9453L44.0984 67.0353C44.4217 67.1086 44.6667 67.242 44.8334 67.4353C45 67.6253 45.0834 67.8686 45.0834 68.1653C45.0834 68.3786 45.03 68.567 44.9234 68.7303C44.82 68.8936 44.6734 69.0203 44.4834 69.1103C44.2967 69.2003 44.075 69.2453 43.8184 69.2453Z" fill="#D71920"/>
<circle cx="40.75" cy="36.75" r="1.75" fill="black"/>
<path d="M33.05 83.1953V72.2453H40.1V74.3453H35.27V76.7753H39.71V78.8753H35.3V83.1953H33.05ZM45.4941 83.3453C44.7641 83.3453 44.1291 83.2103 43.5891 82.9403C43.0491 82.6603 42.6291 82.2753 42.3291 81.7853C42.0391 81.2853 41.8941 80.7053 41.8941 80.0453V75.3953C41.8941 74.7353 42.0391 74.1603 42.3291 73.6703C42.6291 73.1703 43.0491 72.7853 43.5891 72.5153C44.1291 72.2353 44.7641 72.0953 45.4941 72.0953C46.2341 72.0953 46.8691 72.2353 47.3991 72.5153C47.9391 72.7853 48.3541 73.1703 48.6441 73.6703C48.9441 74.1603 49.0941 74.7353 49.0941 75.3953V80.0453C49.0941 80.7053 48.9441 81.2853 48.6441 81.7853C48.3541 82.2753 47.9391 82.6603 47.3991 82.9403C46.8691 83.2103 46.2341 83.3453 45.4941 83.3453ZM45.4941 81.3953C45.9441 81.3953 46.2791 81.2803 46.4991 81.0503C46.7291 80.8103 46.8441 80.4753 46.8441 80.0453V75.3953C46.8441 74.9553 46.7341 74.6203 46.5141 74.3903C46.2941 74.1603 45.9541 74.0453 45.4941 74.0453C45.0341 74.0453 44.6941 74.1603 44.4741 74.3903C44.2541 74.6203 44.1441 74.9553 44.1441 75.3953V80.0453C44.1441 80.4753 44.2541 80.8103 44.4741 81.0503C44.7041 81.2803 45.0441 81.3953 45.4941 81.3953ZM54.4883 83.3453C53.7183 83.3453 53.0483 83.2153 52.4783 82.9553C51.9083 82.6953 51.4683 82.3303 51.1583 81.8603C50.8483 81.3903 50.6933 80.8353 50.6933 80.1953H52.9433C52.9433 80.5653 53.0833 80.8603 53.3633 81.0803C53.6533 81.2903 54.0433 81.3953 54.5333 81.3953C55.0033 81.3953 55.3683 81.2903 55.6283 81.0803C55.8983 80.8703 56.0333 80.5803 56.0333 80.2103C56.0333 79.8903 55.9333 79.6153 55.7333 79.3853C55.5333 79.1553 55.2533 79.0003 54.8933 78.9203L53.7833 78.6653C52.8533 78.4453 52.1283 78.0403 51.6083 77.4503C51.0983 76.8503 50.8433 76.1203 50.8433 75.2603C50.8433 74.6203 50.9883 74.0653 51.2783 73.5953C51.5783 73.1153 51.9983 72.7453 52.5383 72.4853C53.0783 72.2253 53.7183 72.0953 54.4583 72.0953C55.5783 72.0953 56.4633 72.3753 57.1133 72.9353C57.7733 73.4853 58.1033 74.2303 58.1033 75.1703H55.8533C55.8533 74.8203 55.7283 74.5453 55.4783 74.3453C55.2383 74.1453 54.8883 74.0453 54.4283 74.0453C53.9983 74.0453 53.6683 74.1453 53.4383 74.3453C53.2083 74.5353 53.0933 74.8103 53.0933 75.1703C53.0933 75.4903 53.1833 75.7653 53.3633 75.9953C53.5533 76.2153 53.8183 76.3653 54.1583 76.4453L55.3283 76.7153C56.2983 76.9353 57.0333 77.3353 57.5333 77.9153C58.0333 78.4853 58.2833 79.2153 58.2833 80.1053C58.2833 80.7453 58.1233 81.3103 57.8033 81.8003C57.4933 82.2903 57.0533 82.6703 56.4833 82.9403C55.9233 83.2103 55.2583 83.3453 54.4883 83.3453ZM63.4824 83.3453C62.7124 83.3453 62.0424 83.2153 61.4724 82.9553C60.9024 82.6953 60.4624 82.3303 60.1524 81.8603C59.8424 81.3903 59.6874 80.8353 59.6874 80.1953H61.9374C61.9374 80.5653 62.0774 80.8603 62.3574 81.0803C62.6474 81.2903 63.0374 81.3953 63.5274 81.3953C63.9974 81.3953 64.3624 81.2903 64.6224 81.0803C64.8924 80.8703 65.0274 80.5803 65.0274 80.2103C65.0274 79.8903 64.9274 79.6153 64.7274 79.3853C64.5274 79.1553 64.2474 79.0003 63.8874 78.9203L62.7774 78.6653C61.8474 78.4453 61.1224 78.0403 60.6024 77.4503C60.0924 76.8503 59.8374 76.1203 59.8374 75.2603C59.8374 74.6203 59.9824 74.0653 60.2724 73.5953C60.5724 73.1153 60.9924 72.7453 61.5324 72.4853C62.0724 72.2253 62.7124 72.0953 63.4524 72.0953C64.5724 72.0953 65.4574 72.3753 66.1074 72.9353C66.7674 73.4853 67.0974 74.2303 67.0974 75.1703H64.8474C64.8474 74.8203 64.7224 74.5453 64.4724 74.3453C64.2324 74.1453 63.8824 74.0453 63.4224 74.0453C62.9924 74.0453 62.6624 74.1453 62.4324 74.3453C62.2024 74.5353 62.0874 74.8103 62.0874 75.1703C62.0874 75.4903 62.1774 75.7653 62.3574 75.9953C62.5474 76.2153 62.8124 76.3653 63.1524 76.4453L64.3224 76.7153C65.2924 76.9353 66.0274 77.3353 66.5274 77.9153C67.0274 78.4853 67.2774 79.2153 67.2774 80.1053C67.2774 80.7453 67.1174 81.3103 66.7974 81.8003C66.4874 82.2903 66.0474 82.6703 65.4774 82.9403C64.9174 83.2103 64.2524 83.3453 63.4824 83.3453Z" fill="black"/>
<path d="M55.7 64.4545C55.3134 64.4545 55 64.1411 55 63.7545V50.5153C55 49.9183 55.6992 49.5953 56.1538 49.9823L62.958 55.7752C63.2174 55.996 63.5981 55.9981 63.8598 55.7801L70.852 49.9562C71.308 49.5764 72 49.9006 72 50.494V63.7545C72 64.1411 71.6866 64.4545 71.3 64.4545H69.88C69.4934 64.4545 69.18 64.1411 69.18 63.7545V57.1669C69.18 56.5747 68.4905 56.2501 68.034 56.6273L63.8591 60.0779C63.5975 60.2942 63.2184 60.2916 62.9598 60.0717L58.9468 56.6606C58.4921 56.2741 57.7934 56.5972 57.7934 57.1939V63.7545C57.7934 64.1411 57.48 64.4545 57.0934 64.4545H55.7Z" fill="#2E2E2E"/>
</svg>
