<svg width="196" height="50" viewBox="0 0 196 50" fill="none" xmlns="http://www.w3.org/2000/svg">
<g id="nilenso 1" clip-path="url(#clip0_376_231)">
<path id="Vector" d="M179.61 13.9648C170.413 13.9648 163.24 21.1731 163.24 30.5108C163.24 39.7785 170.413 46.9868 179.61 46.9868C188.807 46.9868 195.918 39.7785 195.918 30.5108C195.918 21.1794 188.807 13.9648 179.61 13.9648ZM179.548 35.971C176.547 35.971 174.133 33.5174 174.133 30.5108C174.133 27.4406 176.547 24.987 179.548 24.987C182.611 24.987 185.025 27.4406 185.025 30.5108C185.025 33.5174 182.611 35.971 179.548 35.971Z" fill="#FF3D84"/>
<g id="Group">
<path id="Vector_2" d="M40.7092 11.0163C37.7087 11.0163 35.2944 8.56261 35.2944 5.556C35.2944 2.48583 37.7087 0.0322266 40.7092 0.0322266C43.7729 0.0322266 46.1872 2.48583 46.1872 5.556C46.1872 8.55626 43.7729 11.0163 40.7092 11.0163Z" fill="black"/>
<path id="Vector_3" d="M19.428 46.059V27.0214C19.428 24.7584 17.934 22.7753 14.8767 22.7753C11.8888 22.7753 9.98503 24.6949 9.98503 27.1612V46.0654H0V15.033H9.17186V19.2093H9.24119C10.4641 15.9229 13.6538 14.0732 18.6148 14.0732C25.3408 14.0732 29.413 17.9062 29.413 24.4852V46.059H19.428Z" fill="black"/>
<path id="Vector_4" d="M35.7231 46.0591V15.0332H45.7775V46.0591H35.7231Z" fill="black"/>
<path id="Vector_5" d="M62.8919 50C56.5756 49.7266 52.3647 46.4404 52.3647 38.9715V0H62.2111V37.7384C62.2111 40.2746 63.6357 41.6412 66.3526 41.851L62.8919 50Z" fill="black"/>
<path id="Vector_6" d="M97.6 28.8013L93.1874 33.3207H78.109C78.5818 35.8569 81.9795 38.7301 87.2115 38.7301C90.4012 38.7301 93.6665 37.7703 95.7026 36.4036L94.7507 45.0357C92.4436 46.2688 88.9072 47.0888 84.9674 47.0888C75.5939 47.0888 68.0547 40.5162 68.0547 30.3776C68.0547 20.3789 75.2535 14.0098 84.0849 14.0098C92.6453 14.0098 97.8711 19.9658 97.8711 26.4049C97.8711 27.155 97.7387 28.1847 97.6 28.8013ZM84.0849 21.5358C81.1663 21.5358 78.7205 23.7987 78.109 26.6019H88.5038C88.5038 26.3985 88.5732 26.1887 88.5732 25.9154C88.5668 23.7987 86.7324 21.5358 84.0849 21.5358Z" fill="black"/>
<path id="Vector_7" d="M121.983 46.059V27.0214C121.983 24.7584 120.489 22.7753 117.432 22.7753C114.443 22.7753 112.54 24.6949 112.54 27.1612V46.0654H102.554V15.033H111.727V19.2093H111.796C113.018 15.9229 116.208 14.0732 121.17 14.0732C127.895 14.0732 131.967 17.9062 131.967 24.4852V46.059H121.983Z" fill="black"/>
<path id="Vector_8" d="M147.998 46.7456C143.787 46.7456 140.729 45.8557 138.214 44.5526L137.332 35.6472C140.049 37.5669 143.578 39.0034 146.976 39.0034C148.811 39.0034 149.964 38.0436 149.964 36.8804C149.964 35.5773 148.944 35.0306 147.178 34.4839C141.271 32.774 137.736 29.7547 137.736 24.3454C137.736 18.2495 142.627 14.3467 149.284 14.3467C153.085 14.3467 156.823 15.3764 158.387 16.1964L156.691 23.5954C155.197 22.7754 152.751 21.8855 150.305 21.8855C148.672 21.8855 147.588 22.6419 147.588 23.8686C147.588 25.0319 148.401 25.6484 150.305 26.1316C157.233 27.9813 160.089 31.471 160.089 36.6769C160.082 41.9465 156.281 46.7456 147.998 46.7456Z" fill="black"/>
</g>
</g>
<defs>
<clipPath id="clip0_376_231">
<rect width="195.918" height="50" fill="white"/>
</clipPath>
</defs>
</svg>
