<svg width="140" viewBox="0 0 821 200" fill="none" xmlns="http://www.w3.org/2000/svg"><path fill-rule="evenodd" clip-rule="evenodd" d="M100 200C44.7715 200 0 155.228 0 100C0 44.7715 44.7715 0 100 0C155.228 0 200 44.7715 200 100C200 155.228 155.228 200 100 200ZM143.75 33.8983H125.963V85.3849H117.5V35.9756H100L100 120.886C85.1744 111.244 76.0175 95.6679 76.0175 66.2967V47.4576H57.2675V66.5934C57.2675 96.4096 48.6919 114.359 31.25 125.039L41.8605 138.983C53.1977 132.308 63.5175 118.661 66.7151 106.348C69.7675 118.364 81.3954 130.676 89.0989 135.868L100 120.886L100 160.167H117.5V100.816H125.963V166.102H143.75V33.8983Z" fill="black"></path><path d="M290.024 161.776C297.621 161.776 304.281 160.395 310.004 157.632C315.727 154.869 320.216 151.071 323.472 146.236C326.728 141.401 328.356 135.827 328.356 129.512C328.356 114.811 319.575 104.648 302.012 99.024L281.736 92.66C277.789 91.3773 274.78 89.6013 272.708 87.332C270.735 84.964 269.748 82.2507 269.748 79.192C269.748 75.1467 271.277 71.8907 274.336 69.424C277.493 66.8587 281.637 65.576 286.768 65.576C292.491 65.576 297.523 67.1053 301.864 70.164C306.205 73.124 309.461 77.3667 311.632 82.892L328.208 75.492C325.248 67.204 320.068 60.544 312.668 55.512C305.367 50.48 296.733 47.964 286.768 47.964C279.565 47.964 273.152 49.3453 267.528 52.108C262.003 54.772 257.661 58.5213 254.504 63.356C251.445 68.1907 249.916 73.7653 249.916 80.08C249.916 87.2827 252.087 93.548 256.428 98.876C260.769 104.105 267.232 108.101 275.816 110.864L296.98 117.672C300.828 118.955 303.689 120.632 305.564 122.704C307.537 124.776 308.524 127.44 308.524 130.696C308.524 134.741 306.896 137.997 303.64 140.464C300.483 142.931 296.289 144.164 291.06 144.164C284.745 144.164 279.072 142.388 274.04 138.836C269.008 135.185 265.16 130.203 262.496 123.888L245.772 131.14C247.745 137.257 250.853 142.635 255.096 147.272C259.437 151.811 264.568 155.363 270.488 157.928C276.507 160.493 283.019 161.776 290.024 161.776ZM368.55 161.776C379.008 161.776 387.395 158.323 393.71 151.416V160H412.062V106.424C412.062 100.8 410.631 95.8173 407.77 91.476C404.908 87.1347 400.962 83.78 395.93 81.412C390.996 78.9453 385.224 77.712 378.614 77.712C370.523 77.712 363.32 79.636 357.006 83.484C350.691 87.332 346.35 92.4133 343.982 98.728L359.818 106.424C361.298 102.773 363.616 99.8627 366.774 97.692C369.931 95.4227 373.631 94.288 377.874 94.288C382.314 94.288 385.866 95.472 388.53 97.84C391.292 100.109 392.674 102.971 392.674 106.424V109.088L368.698 112.936C359.226 114.515 352.22 117.524 347.682 121.964C343.143 126.404 340.874 131.979 340.874 138.688C340.874 145.792 343.39 151.416 348.422 155.56C353.454 159.704 360.163 161.776 368.55 161.776ZM361.002 137.948C361.002 132.324 364.8 128.772 372.398 127.292L392.674 123.888V127.144C392.674 132.669 390.75 137.356 386.902 141.204C383.152 145.052 378.219 146.976 372.102 146.976C368.846 146.976 366.182 146.187 364.11 144.608C362.038 142.931 361.002 140.711 361.002 137.948ZM468.165 161.776C476.354 161.776 483.508 159.951 489.625 156.3C495.841 152.551 500.182 147.815 502.649 142.092L486.961 134.396C485.185 137.455 482.718 139.971 479.561 141.944C476.502 143.819 472.753 144.756 468.313 144.756C462.492 144.756 457.608 142.98 453.661 139.428C449.714 135.876 447.445 131.14 446.853 125.22H504.869C505.264 124.135 505.51 122.901 505.609 121.52C505.806 120.04 505.905 118.56 505.905 117.08C505.905 109.877 504.376 103.316 501.317 97.396C498.258 91.476 493.818 86.74 487.997 83.188C482.176 79.5373 475.072 77.712 466.685 77.712C459.186 77.712 452.378 79.5373 446.261 83.188C440.242 86.8387 435.457 91.8213 431.905 98.136C428.452 104.352 426.725 111.505 426.725 119.596C426.725 127.391 428.452 134.495 431.905 140.908C435.358 147.321 440.193 152.403 446.409 156.152C452.625 159.901 459.877 161.776 468.165 161.776ZM466.685 93.696C471.816 93.696 476.058 95.2747 479.413 98.432C482.866 101.491 484.79 105.487 485.185 110.42H447.297C448.382 105.092 450.652 100.997 454.105 98.136C457.657 95.176 461.85 93.696 466.685 93.696ZM520.602 160H539.99V47.964H520.602V160ZM597.259 161.776C605.054 161.776 612.158 160 618.571 156.448C624.985 152.797 630.115 147.815 633.963 141.5C637.811 135.087 639.735 127.835 639.735 119.744C639.735 111.653 637.811 104.451 633.963 98.136C630.214 91.8213 625.133 86.8387 618.719 83.188C612.306 79.5373 605.153 77.712 597.259 77.712C589.267 77.712 582.065 79.5373 575.651 83.188C569.238 86.8387 564.107 91.8213 560.259 98.136C556.51 104.451 554.635 111.653 554.635 119.744C554.635 127.835 556.51 135.037 560.259 141.352C564.107 147.667 569.238 152.649 575.651 156.3C582.163 159.951 589.366 161.776 597.259 161.776ZM597.259 144.016C592.918 144.016 589.021 142.98 585.567 140.908C582.213 138.836 579.549 135.975 577.575 132.324C575.701 128.575 574.763 124.381 574.763 119.744C574.763 115.107 575.701 110.963 577.575 107.312C579.549 103.661 582.213 100.8 585.567 98.728C589.021 96.5573 592.918 95.472 597.259 95.472C601.601 95.472 605.399 96.5573 608.655 98.728C612.01 100.8 614.625 103.661 616.499 107.312C618.473 110.963 619.459 115.107 619.459 119.744C619.459 124.381 618.473 128.575 616.499 132.324C614.625 135.975 612.01 138.836 608.655 140.908C605.399 142.98 601.601 144.016 597.259 144.016ZM683.15 161.776C688.182 161.776 692.622 160.839 696.47 158.964C700.417 156.991 703.525 154.129 705.794 150.38V160H724.146V79.488H704.758V126.7C704.758 132.028 703.229 136.271 700.17 139.428C697.111 142.487 693.214 144.016 688.478 144.016C683.643 144.016 679.697 142.487 676.638 139.428C673.678 136.369 672.198 132.275 672.198 127.144V79.488H652.81V128.772C652.81 138.639 655.474 146.631 660.802 152.748C666.229 158.767 673.678 161.776 683.15 161.776ZM742.169 160H761.557V112.788C761.557 107.559 763.037 103.365 765.997 100.208C769.055 97.0507 773.002 95.472 777.837 95.472C782.671 95.472 786.569 97.0507 789.529 100.208C792.587 103.267 794.117 107.46 794.117 112.788V160H813.505V108.2C813.505 102.181 812.222 96.9027 809.657 92.364C807.091 87.7267 803.49 84.1253 798.853 81.56C794.314 78.9947 789.085 77.712 783.165 77.712C778.133 77.712 773.594 78.6987 769.549 80.672C765.602 82.6453 762.543 85.556 760.373 89.404V79.488H742.169V160Z" fill="black"></path></svg>
