<svg width="24" height="32" viewBox="0 0 24 32" fill="none" xmlns="http://www.w3.org/2000/svg">
<g id="logo 1">
<g id="Group">
<path id="Vector" d="M8.97997 4.37544C8.76497 4.99544 8.33497 5.76544 7.88497 6.34044C7.65997 6.62544 7.42997 6.92544 7.37497 7.00044C7.17497 7.27544 6.39997 8.13544 5.94497 8.58544C5.23497 9.28044 4.88497 9.71044 4.47497 10.3954C3.96497 11.2554 3.76997 11.7904 3.64997 12.6804C3.59997 13.0304 3.59997 13.2304 3.64497 13.5754C3.70997 14.0554 3.86997 14.7654 3.97497 15.0454C4.00997 15.1454 4.08997 15.3804 4.14997 15.5754C4.27497 15.9854 4.70497 16.8204 5.05997 17.3504C5.73997 18.3604 6.97497 19.6804 7.74497 20.2304C8.32497 20.6404 8.70497 20.9004 8.72997 20.9004C8.73997 20.9004 8.89997 20.9954 9.08497 21.1154C9.27497 21.2354 9.44997 21.3454 9.48497 21.3654C9.59997 21.4354 9.16997 20.7754 8.92497 20.5054C7.78497 19.2454 7.41997 18.7054 6.75497 17.3254C6.34997 16.4804 6.31497 16.3804 6.21997 15.9004C6.03997 14.9554 6.20497 13.8754 6.66997 12.9554C6.81497 12.6754 7.69997 11.3454 7.89997 11.1204C8.05997 10.9354 9.03497 9.37544 9.22497 9.00044C9.42497 8.60544 9.58997 8.14544 9.63497 7.86544C9.70497 7.41044 9.66497 6.83544 9.54497 6.55544L9.43497 6.29544L9.31497 6.75044C9.09497 7.60044 8.72997 8.28544 8.04497 9.13044C7.58497 9.69544 6.54997 10.5204 6.54997 10.3204C6.54997 10.2704 6.82497 9.93044 7.11497 9.63044C7.27997 9.46044 7.49497 9.21044 7.59997 9.07544C7.70497 8.93544 7.88497 8.70544 7.99997 8.55544C8.28997 8.18544 8.77997 7.32044 8.82497 7.10544C8.83497 7.06044 8.88997 6.90044 8.94997 6.75044C9.18497 6.13044 9.28997 5.07544 9.18997 4.40044L9.12497 3.97544L8.97997 4.37544Z" fill="#3B3B3B"/>
<path id="Vector_2" d="M12.6999 4.15037C11.9399 4.36037 11.5699 4.60037 11.0849 5.21537C10.5799 5.85537 10.2699 6.51037 10.2249 7.06037C10.1599 7.81037 10.0549 8.83537 10.0249 8.96537C9.96494 9.26537 9.73494 9.89037 9.54994 10.2754C9.42494 10.5354 9.20994 10.8404 8.94494 11.1504C8.37494 11.8104 7.73994 12.6654 7.53494 13.0504C7.36494 13.3704 7.11994 13.9954 7.07994 14.2154C6.95494 14.9104 6.93494 15.2604 6.99494 15.6554C7.02994 15.8854 7.06494 16.1254 7.07494 16.1854C7.09994 16.3654 7.34994 17.1054 7.47994 17.3904C7.54494 17.5354 7.59994 17.6604 7.59994 17.6754C7.59994 17.6854 7.68494 17.8354 7.78494 18.0104C8.03994 18.4504 8.65494 19.2554 9.07494 19.7004C9.26994 19.9054 9.60994 20.2904 9.83494 20.5504C10.4599 21.2904 10.7399 21.5304 11.0699 21.6254C11.4549 21.7404 11.6899 21.6904 11.9599 21.4504C12.1499 21.2854 12.3249 20.9954 12.4199 20.6854C12.4699 20.5254 12.5499 20.6004 12.5499 20.8104C12.5499 20.9504 12.4949 21.1104 12.3749 21.3304C12.2749 21.5054 12.1749 21.6604 12.1499 21.6754C12.1199 21.6904 12.0999 21.7304 12.0999 21.7604C12.0999 21.8504 12.5499 21.7704 12.8749 21.6254C13.3599 21.4104 14.1149 20.7904 14.7749 20.0504C15.3449 19.4204 15.8599 18.5704 16.0349 17.9854C16.0749 17.8404 16.1249 17.7004 16.1499 17.6754C16.2049 17.6054 16.4299 16.7104 16.5299 16.1754C16.6299 15.6154 16.5999 14.6804 16.4599 14.0154C16.2799 13.2004 15.7899 12.2254 14.7949 10.7104C13.7699 9.15537 13.6599 8.94537 13.1949 7.70037C13.0799 7.38037 12.8499 6.32537 12.8499 6.10037C12.8499 5.76537 12.9299 5.44537 13.0999 5.07037C13.2849 4.66537 13.4849 4.44537 13.8049 4.30037L14.0649 4.17537L13.7699 4.11537C13.3699 4.03537 13.0899 4.04037 12.6999 4.15037ZM12.6749 11.7804C13.6549 11.9504 14.4449 12.3604 15.1049 13.0354C15.5899 13.5304 15.7099 13.7504 15.8749 14.4254C15.9999 14.9304 16.0049 15.0054 15.9549 15.3504C15.9249 15.5554 15.8449 15.9154 15.7749 16.1504C15.6449 16.5704 15.6399 16.5804 15.1249 17.0854C14.5799 17.6204 14.2149 17.8454 13.4749 18.1004C12.5849 18.4104 11.1899 18.4254 10.0749 18.1354C9.60494 18.0154 9.40994 17.9254 8.95994 17.6154C7.72494 16.7704 7.20494 15.5654 7.54494 14.3304C7.75994 13.5454 8.40994 12.7804 9.25494 12.3154C9.79994 12.0154 10.1549 11.8904 10.7499 11.7804C11.5349 11.6404 11.8449 11.6404 12.6749 11.7804Z" fill="#3B3B3B"/>
<path id="Vector_3" d="M14.7201 4.27003C14.0051 4.49503 13.6201 5.19503 13.6301 6.25003C13.6351 6.57503 13.6651 6.86003 13.7101 7.00003C13.7551 7.12503 13.8051 7.29003 13.8251 7.37003C13.9101 7.74503 14.6351 9.05503 15.1301 9.72503C15.2501 9.89003 15.3651 10.06 15.3851 10.1C15.4001 10.14 15.5351 10.355 15.6751 10.575C16.4251 11.73 16.7101 12.375 17.0351 13.6C17.1651 14.105 17.1701 14.17 17.1751 15.425C17.1751 16.695 17.1701 16.74 17.0301 17.3C16.7951 18.245 16.5601 18.81 16.1351 19.5C15.7151 20.17 15.1351 20.79 14.5901 21.145C14.4051 21.27 14.2601 21.375 14.2701 21.385C14.3151 21.43 15.2851 21.135 15.6051 20.975C16.0551 20.745 16.2451 20.605 16.5951 20.25C17.1651 19.665 17.4701 19.19 17.8001 18.37C18.4051 16.89 18.5651 15.28 18.2701 13.61C18.1051 12.68 17.4601 11.105 17.0451 10.625C17.0001 10.57 16.8851 10.4 16.7901 10.245C16.6251 9.97003 16.5601 9.87503 16.1751 9.38003C15.6801 8.74503 14.9201 7.58503 14.7001 7.12503C14.4551 6.62003 14.3801 6.22503 14.4201 5.60503C14.4451 5.22003 14.4751 5.07003 14.6001 4.80503C14.6851 4.62503 14.7701 4.46503 14.7901 4.45003C14.8751 4.38503 15.0101 4.20003 14.9701 4.20503C14.9451 4.20503 14.8351 4.23503 14.7201 4.27003Z" fill="#3B3B3B"/>
<path id="Vector_4" d="M16.1351 4.92519C16.0251 4.96019 15.8851 5.04519 15.8151 5.11019C15.5701 5.33519 15.4351 5.82519 15.4951 6.25019C15.6201 7.05519 15.9201 7.71019 16.6151 8.70019C17.3801 9.79019 18.0051 10.9102 18.4151 11.9252C18.5951 12.3652 18.9501 13.5152 18.9801 13.7352C18.9901 13.8402 19.0251 14.0452 19.0501 14.1952C19.1151 14.5452 19.1101 15.5252 19.0451 15.9752C19.0201 16.1652 18.9851 16.3952 18.9751 16.4802C18.9401 16.7502 18.6951 17.6052 18.5401 17.9952C18.2551 18.7152 17.9801 19.1702 17.3551 19.9452C16.7401 20.7052 16.5801 20.9202 16.6551 20.8752C16.6951 20.8502 16.9401 20.6752 17.2001 20.4852C17.7751 20.0602 18.5151 19.3302 18.7801 18.9252C18.8851 18.7602 18.9901 18.6152 19.0051 18.6002C19.0551 18.5652 19.3851 17.8852 19.5051 17.5852C19.6351 17.2652 19.7901 16.7352 19.8301 16.5002C19.8451 16.4052 19.8901 16.1702 19.9301 15.9852C20.1301 15.0152 19.9201 13.5502 19.3651 12.0502C19.1501 11.4752 18.4201 9.97019 18.1901 9.62519C17.7851 9.02519 17.5551 8.69519 17.2351 8.25019C16.6151 7.38519 16.0501 6.15019 16.0501 5.67019C16.0501 5.36019 16.0951 5.24519 16.3151 5.01019C16.4851 4.83519 16.4401 4.81519 16.1351 4.92519Z" fill="#3B3B3B"/>
<path id="Vector_5" d="M0.729909 18.1304C0.684909 18.2454 0.694909 18.3904 0.744909 18.4104C0.764909 18.4154 1.22991 19.0904 1.77491 19.9004C2.31491 20.7104 2.79991 21.4204 2.84991 21.4754C2.89991 21.5304 3.07491 21.7804 3.23991 22.0304C3.55491 22.5054 4.30491 23.4104 4.60991 23.6854C4.73991 23.8004 4.94491 23.8904 5.37991 24.0204C5.70991 24.1204 6.25491 24.2904 6.59991 24.4004C6.94491 24.5104 7.38491 24.6454 7.57991 24.7004C7.76991 24.7554 7.98491 24.8404 8.04991 24.8854L8.16491 24.9654L8.12991 25.8104L8.09491 26.6504H9.49991H10.8999V25.0304C10.8999 23.7954 10.8849 23.4004 10.8399 23.3654C10.8049 23.3404 10.5849 23.2404 10.3499 23.1504C10.1149 23.0604 9.82491 22.9354 9.69991 22.8704C9.57491 22.8104 9.28491 22.6754 9.04991 22.5704C8.81491 22.4704 8.53491 22.3454 8.42491 22.3004C8.14491 22.1754 7.24991 21.8204 7.09991 21.7754C6.78991 21.6854 5.06491 20.8354 4.63991 20.5654C4.42991 20.4354 4.07991 20.2154 3.86491 20.0804C3.48491 19.8454 3.22991 19.6604 2.23991 18.9204C1.10491 18.0654 0.814909 17.9154 0.729909 18.1304Z" fill="#3B3B3B"/>
<path id="Vector_6" d="M22.9101 18.1602C22.7901 18.2252 22.3601 18.5202 21.9501 18.8252C20.1701 20.1502 19.5001 20.5802 18.2251 21.1952C17.6751 21.4652 17.1451 21.7102 17.0501 21.7452C16.9551 21.7802 16.8301 21.8302 16.7751 21.8552C16.7201 21.8802 16.5301 21.9552 16.3501 22.0202C16.1701 22.0852 15.8451 22.2252 15.6251 22.3252C15.4051 22.4252 14.8551 22.6652 14.4001 22.8602C13.9451 23.0552 13.4701 23.2652 13.3401 23.3302L13.1001 23.4502V25.0752V26.7002H14.5051H15.9051L15.8701 25.8302L15.8351 24.9552L16.0301 24.8752C16.1351 24.8302 16.4501 24.7302 16.7251 24.6502C17.0001 24.5702 17.3851 24.4602 17.5751 24.4002C17.7701 24.3402 18.1301 24.2402 18.3751 24.1752C19.2151 23.9602 19.3101 23.9002 19.9251 23.1502C20.2301 22.7852 20.6051 22.3052 20.7601 22.0802C20.9201 21.8602 21.1451 21.5402 21.2651 21.3752C21.3851 21.2102 21.6951 20.7602 21.9501 20.3752C22.2051 19.9902 22.6251 19.3702 22.8751 18.9952C23.3151 18.3402 23.3301 18.3102 23.2651 18.1802C23.1851 18.0252 23.1801 18.0252 22.9101 18.1602Z" fill="#3B3B3B"/>
</g>
</g>
</svg>
