<svg width="14" height="14" viewBox="0 0 14 14" fill="none" xmlns="http://www.w3.org/2000/svg">
<g clip-path="url(#clip0_471_224)">
<path d="M12.9231 0H1.07692C0.484615 0 0 0.484615 0 1.07692V12.9231C0 13.5154 0.484615 14 1.07692 14H12.9231C13.5154 14 14 13.5154 14 12.9231V1.07692C14 0.484615 13.5154 0 12.9231 0ZM4.20862 11.8462H2.15385V5.23654H4.20862V11.8462ZM3.16508 4.42562C2.43869 4.42562 1.95354 3.91085 1.96862 3.27438C1.95354 2.60831 2.43869 2.10808 3.18015 2.10808C3.92269 2.10808 4.39223 2.60831 4.40731 3.27438C4.40785 3.91085 3.92323 4.42562 3.16508 4.42562ZM11.8462 11.8462H9.79192V8.18354C9.79192 7.33169 9.49415 6.75069 8.75054 6.75069C8.18354 6.75069 7.84539 7.14269 7.71023 7.52123C7.65638 7.64292 7.62946 7.84592 7.62946 8.03438V11.8462H5.57469V7.34569C5.57469 6.52077 5.54777 5.81808 5.52085 5.23708H7.30477L7.39954 6.14277H7.44046C7.71077 5.72331 8.38654 5.08846 9.48123 5.08846C10.8328 5.08846 11.8462 5.98015 11.8462 7.92669V11.8462Z" fill="#3B3B3B"/>
</g>
<defs>
<clipPath id="clip0_471_224">
<rect width="14" height="14" fill="white"/>
</clipPath>
</defs>
</svg>
