<svg width="14" height="14" viewBox="0 0 14 14" fill="none" xmlns="http://www.w3.org/2000/svg">
<g clip-path="url(#clip0_471_220)">
<path d="M7.18525 13.3949C10.6988 13.3949 13.547 10.4508 13.547 6.81905C13.547 3.18729 10.6988 0.243164 7.18525 0.243164C3.67175 0.243164 0.823486 3.18729 0.823486 6.81905C0.823486 10.4508 3.67175 13.3949 7.18525 13.3949Z" fill="#3B3B3B" stroke="white" stroke-width="0.579"/>
<path d="M9.2621 6.81846C9.2621 8.68255 9.00516 10.3601 8.59661 11.5633C8.39196 12.1662 8.15358 12.6368 7.90058 12.9521C7.64579 13.2694 7.40256 13.3987 7.18543 13.3987C6.96831 13.3987 6.72508 13.2694 6.4703 12.9521C6.21728 12.6368 5.97891 12.1662 5.77423 11.5633C5.36567 10.3601 5.10876 8.68255 5.10876 6.81846C5.10876 4.95438 5.36567 3.27681 5.77423 2.07356C5.97891 1.47075 6.21728 1.00007 6.4703 0.684897C6.72508 0.367514 6.96831 0.238281 7.18543 0.238281C7.40256 0.238281 7.64579 0.367514 7.90058 0.684897C8.15358 1.00007 8.39196 1.47075 8.59661 2.07356C9.00516 3.27681 9.2621 4.95438 9.2621 6.81846Z" fill="#3B3B3B" stroke="white" stroke-width="0.579"/>
<path d="M1.09253 5.11523H13.547M1.43111 9.87141H12.8987" stroke="white" stroke-width="0.579"/>
</g>
<defs>
<clipPath id="clip0_471_220">
<rect width="14" height="14" fill="white"/>
</clipPath>
</defs>
</svg>
