<svg width="24" height="33" viewBox="0 0 24 33" fill="none" xmlns="http://www.w3.org/2000/svg">
<g id="logo 1">
<g id="Group">
<path id="Vector" d="M8.97948 4.87495C8.76448 5.49495 8.33448 6.26495 7.88448 6.83995C7.65948 7.12495 7.42948 7.42495 7.37448 7.49995C7.17448 7.77495 6.39948 8.63495 5.94448 9.08495C5.23448 9.77995 4.88448 10.21 4.47448 10.895C3.96448 11.755 3.76948 12.29 3.64948 13.18C3.59948 13.53 3.59948 13.73 3.64448 14.075C3.70948 14.555 3.86948 15.265 3.97448 15.545C4.00948 15.645 4.08948 15.88 4.14948 16.075C4.27448 16.485 4.70448 17.32 5.05948 17.85C5.73948 18.86 6.97448 20.18 7.74448 20.73C8.32448 21.14 8.70448 21.4 8.72948 21.4C8.73948 21.4 8.89948 21.495 9.08448 21.615C9.27448 21.735 9.44948 21.845 9.48448 21.865C9.59948 21.935 9.16948 21.275 8.92448 21.005C7.78448 19.745 7.41948 19.205 6.75448 17.825C6.34948 16.98 6.31448 16.88 6.21948 16.4C6.03948 15.455 6.20448 14.375 6.66948 13.455C6.81448 13.175 7.69948 11.845 7.89948 11.62C8.05948 11.435 9.03448 9.87495 9.22448 9.49995C9.42448 9.10495 9.58948 8.64495 9.63448 8.36495C9.70448 7.90995 9.66448 7.33495 9.54448 7.05495L9.43448 6.79495L9.31448 7.24995C9.09448 8.09995 8.72948 8.78495 8.04448 9.62995C7.58448 10.195 6.54948 11.02 6.54948 10.82C6.54948 10.77 6.82448 10.43 7.11448 10.13C7.27948 9.95995 7.49448 9.70995 7.59948 9.57495C7.70448 9.43495 7.88448 9.20495 7.99948 9.05495C8.28948 8.68495 8.77948 7.81995 8.82448 7.60495C8.83448 7.55995 8.88948 7.39995 8.94948 7.24995C9.18448 6.62995 9.28948 5.57495 9.18948 4.89995L9.12448 4.47495L8.97948 4.87495Z" fill="#3B3B3B"/>
<path id="Vector_2" d="M12.6995 4.64988C11.9395 4.85988 11.5695 5.09988 11.0845 5.71488C10.5795 6.35488 10.2694 7.00988 10.2245 7.55988C10.1595 8.30988 10.0545 9.33488 10.0245 9.46488C9.96445 9.76488 9.73445 10.3899 9.54945 10.7749C9.42445 11.0349 9.20945 11.3399 8.94445 11.6499C8.37445 12.3099 7.73945 13.1649 7.53445 13.5499C7.36445 13.8699 7.11945 14.4949 7.07945 14.7149C6.95445 15.4099 6.93445 15.7599 6.99445 16.1549C7.02945 16.3849 7.06445 16.6249 7.07445 16.6849C7.09945 16.8649 7.34945 17.6049 7.47945 17.8899C7.54445 18.0349 7.59945 18.1599 7.59945 18.1749C7.59945 18.1849 7.68445 18.3349 7.78445 18.5099C8.03945 18.9499 8.65445 19.7549 9.07445 20.1999C9.26945 20.4049 9.60945 20.7899 9.83445 21.0499C10.4595 21.7899 10.7394 22.0299 11.0694 22.1249C11.4545 22.2399 11.6895 22.1899 11.9595 21.9499C12.1495 21.7849 12.3245 21.4949 12.4195 21.1849C12.4695 21.0249 12.5495 21.0999 12.5495 21.3099C12.5495 21.4499 12.4945 21.6099 12.3745 21.8299C12.2745 22.0049 12.1745 22.1599 12.1495 22.1749C12.1195 22.1899 12.0995 22.2299 12.0995 22.2599C12.0995 22.3499 12.5495 22.2699 12.8745 22.1249C13.3595 21.9099 14.1145 21.2899 14.7745 20.5499C15.3445 19.9199 15.8595 19.0699 16.0345 18.4849C16.0745 18.3399 16.1245 18.1999 16.1495 18.1749C16.2045 18.1049 16.4295 17.2099 16.5295 16.6749C16.6295 16.1149 16.5995 15.1799 16.4595 14.5149C16.2795 13.6999 15.7895 12.7249 14.7945 11.2099C13.7695 9.65488 13.6595 9.44488 13.1945 8.19988C13.0795 7.87988 12.8495 6.82488 12.8495 6.59988C12.8495 6.26488 12.9295 5.94488 13.0995 5.56988C13.2845 5.16488 13.4845 4.94488 13.8045 4.79988L14.0645 4.67488L13.7695 4.61488C13.3695 4.53488 13.0895 4.53988 12.6995 4.64988ZM12.6745 12.2799C13.6545 12.4499 14.4445 12.8599 15.1045 13.5349C15.5895 14.0299 15.7095 14.2499 15.8745 14.9249C15.9995 15.4299 16.0045 15.5049 15.9545 15.8499C15.9245 16.0549 15.8445 16.4149 15.7745 16.6499C15.6445 17.0699 15.6395 17.0799 15.1245 17.5849C14.5795 18.1199 14.2145 18.3449 13.4745 18.5999C12.5845 18.9099 11.1895 18.9249 10.0745 18.6349C9.60445 18.5149 9.40945 18.4249 8.95945 18.1149C7.72445 17.2699 7.20445 16.0649 7.54445 14.8299C7.75945 14.0449 8.40945 13.2799 9.25445 12.8149C9.79945 12.5149 10.1544 12.3899 10.7494 12.2799C11.5345 12.1399 11.8445 12.1399 12.6745 12.2799Z" fill="#3B3B3B"/>
<path id="Vector_3" d="M14.7201 4.77003C14.0051 4.99503 13.6201 5.69503 13.6301 6.75003C13.6351 7.07503 13.6651 7.36003 13.7101 7.50003C13.7551 7.62503 13.8051 7.79003 13.8251 7.87003C13.9101 8.24503 14.6351 9.55503 15.1301 10.225C15.2501 10.39 15.3651 10.56 15.3851 10.6C15.4001 10.64 15.5351 10.855 15.6751 11.075C16.4251 12.23 16.7101 12.875 17.0351 14.1C17.1651 14.605 17.1701 14.67 17.1751 15.925C17.1751 17.195 17.1701 17.24 17.0301 17.8C16.7951 18.745 16.5601 19.31 16.1351 20C15.7151 20.67 15.1351 21.29 14.5901 21.645C14.4051 21.77 14.2601 21.875 14.2701 21.885C14.3151 21.93 15.2851 21.635 15.6051 21.475C16.0551 21.245 16.2451 21.105 16.5951 20.75C17.1651 20.165 17.4701 19.69 17.8001 18.87C18.4051 17.39 18.5651 15.78 18.2701 14.11C18.1051 13.18 17.4601 11.605 17.0451 11.125C17.0001 11.07 16.8851 10.9 16.7901 10.745C16.6251 10.47 16.5601 10.375 16.1751 9.88003C15.6801 9.24503 14.9201 8.08503 14.7001 7.62503C14.4551 7.12003 14.3801 6.72503 14.4201 6.10503C14.4451 5.72003 14.4751 5.57003 14.6001 5.30503C14.6851 5.12503 14.7701 4.96503 14.7901 4.95003C14.8751 4.88503 15.0101 4.70003 14.9701 4.70503C14.9451 4.70503 14.8351 4.73503 14.7201 4.77003Z" fill="#3B3B3B"/>
<path id="Vector_4" d="M16.1346 5.42519C16.0246 5.46019 15.8846 5.54519 15.8146 5.61019C15.5696 5.83519 15.4346 6.32519 15.4946 6.75019C15.6196 7.55519 15.9196 8.21019 16.6146 9.20019C17.3796 10.2902 18.0046 11.4102 18.4146 12.4252C18.5946 12.8652 18.9496 14.0152 18.9796 14.2352C18.9896 14.3402 19.0246 14.5452 19.0496 14.6952C19.1146 15.0452 19.1096 16.0252 19.0446 16.4752C19.0196 16.6652 18.9846 16.8952 18.9746 16.9802C18.9396 17.2502 18.6946 18.1052 18.5396 18.4952C18.2546 19.2152 17.9796 19.6702 17.3546 20.4452C16.7396 21.2052 16.5796 21.4202 16.6546 21.3752C16.6946 21.3502 16.9396 21.1752 17.1996 20.9852C17.7746 20.5602 18.5146 19.8302 18.7796 19.4252C18.8846 19.2602 18.9896 19.1152 19.0046 19.1002C19.0546 19.0652 19.3846 18.3852 19.5046 18.0852C19.6346 17.7652 19.7896 17.2352 19.8296 17.0002C19.8446 16.9052 19.8896 16.6702 19.9296 16.4852C20.1296 15.5152 19.9196 14.0502 19.3646 12.5502C19.1496 11.9752 18.4196 10.4702 18.1896 10.1252C17.7846 9.52519 17.5546 9.19519 17.2346 8.75019C16.6146 7.88519 16.0496 6.65019 16.0496 6.17019C16.0496 5.86019 16.0946 5.74519 16.3146 5.51019C16.4846 5.33519 16.4396 5.31519 16.1346 5.42519Z" fill="#3B3B3B"/>
<path id="Vector_5" d="M0.729909 18.6304C0.684909 18.7454 0.694909 18.8904 0.744909 18.9104C0.764909 18.9154 1.22991 19.5904 1.77491 20.4004C2.31491 21.2104 2.79991 21.9204 2.84991 21.9754C2.89991 22.0304 3.07491 22.2804 3.23991 22.5304C3.55491 23.0054 4.30491 23.9104 4.60991 24.1854C4.73991 24.3004 4.94491 24.3904 5.37991 24.5204C5.70991 24.6204 6.25491 24.7904 6.59991 24.9004C6.94491 25.0104 7.38491 25.1454 7.57991 25.2004C7.76991 25.2554 7.98491 25.3404 8.04991 25.3854L8.16491 25.4654L8.12991 26.3104L8.09491 27.1504H9.49991H10.8999V25.5304C10.8999 24.2954 10.8849 23.9004 10.8399 23.8654C10.8049 23.8404 10.5849 23.7404 10.3499 23.6504C10.1149 23.5604 9.82491 23.4354 9.69991 23.3704C9.57491 23.3104 9.28491 23.1754 9.04991 23.0704C8.81491 22.9704 8.53491 22.8454 8.42491 22.8004C8.14491 22.6754 7.24991 22.3204 7.09991 22.2754C6.78991 22.1854 5.06491 21.3354 4.63991 21.0654C4.42991 20.9354 4.07991 20.7154 3.86491 20.5804C3.48491 20.3454 3.22991 20.1604 2.23991 19.4204C1.10491 18.5654 0.814909 18.4154 0.729909 18.6304Z" fill="#3B3B3B"/>
<path id="Vector_6" d="M22.9096 18.6602C22.7896 18.7252 22.3596 19.0202 21.9496 19.3252C20.1696 20.6502 19.4996 21.0802 18.2246 21.6952C17.6746 21.9652 17.1446 22.2102 17.0496 22.2452C16.9546 22.2802 16.8296 22.3302 16.7746 22.3552C16.7196 22.3802 16.5296 22.4552 16.3496 22.5202C16.1696 22.5852 15.8446 22.7252 15.6246 22.8252C15.4046 22.9252 14.8546 23.1652 14.3996 23.3602C13.9446 23.5552 13.4696 23.7652 13.3396 23.8302L13.0996 23.9502V25.5752V27.2002H14.5046H15.9046L15.8696 26.3302L15.8346 25.4552L16.0296 25.3752C16.1346 25.3302 16.4496 25.2302 16.7246 25.1502C16.9996 25.0702 17.3846 24.9602 17.5746 24.9002C17.7696 24.8402 18.1296 24.7402 18.3746 24.6752C19.2146 24.4602 19.3096 24.4002 19.9246 23.6502C20.2296 23.2852 20.6046 22.8052 20.7596 22.5802C20.9196 22.3602 21.1446 22.0402 21.2646 21.8752C21.3846 21.7102 21.6946 21.2602 21.9496 20.8752C22.2046 20.4902 22.6246 19.8702 22.8746 19.4952C23.3146 18.8402 23.3296 18.8102 23.2646 18.6802C23.1846 18.5252 23.1796 18.5252 22.9096 18.6602Z" fill="#3B3B3B"/>
</g>
</g>
</svg>
